<svg width="236" height="157" viewBox="0 0 236 157" fill="none" xmlns="http://www.w3.org/2000/svg">
<g filter="url(#filter0_d_21_201)">
<rect x="22" y="24" width="152" height="57" rx="15" fill="white"/>
<rect x="22.5" y="24.5" width="151" height="56" rx="14.5" stroke="#F4F4F4"/>
</g>
<g clip-path="url(#clip0_21_201)">
<path d="M56.5 65C63.4036 65 69 59.4036 69 52.5C69 45.5964 63.4036 40 56.5 40C49.5964 40 44 45.5964 44 52.5C44 59.4036 49.5964 65 56.5 65Z" fill="#3C5A9A"/>
<path d="M60.5644 43.8369H57.7954C56.1521 43.8369 54.3244 44.528 54.3244 46.91C54.3324 47.74 54.3244 48.5348 54.3244 49.4294H52.4233V52.4545H54.3832V61.1632H57.9845V52.397H60.3615L60.5766 49.4209H57.9225C57.9225 49.4209 57.9284 48.097 57.9225 47.7126C57.9225 46.7713 58.9019 46.8252 58.9608 46.8252C59.4269 46.8252 60.3332 46.8265 60.5658 46.8252V43.8369H60.5644Z" fill="white"/>
</g>
<path d="M84.639 51.075V54.582H88.762V55.688H84.639V60H83.281V49.969H89.462V51.075H84.639ZM94.248 56.808C93.674 56.8267 93.184 56.8733 92.778 56.948C92.3766 57.018 92.0476 57.1113 91.791 57.228C91.539 57.3447 91.3546 57.4823 91.238 57.641C91.126 57.7997 91.07 57.977 91.07 58.173C91.07 58.3597 91.1003 58.5207 91.161 58.656C91.2216 58.7913 91.3033 58.9033 91.406 58.992C91.5133 59.076 91.637 59.139 91.777 59.181C91.9216 59.2183 92.0756 59.237 92.239 59.237C92.4583 59.237 92.659 59.216 92.841 59.174C93.023 59.1273 93.1933 59.062 93.352 58.978C93.5153 58.894 93.6693 58.7937 93.814 58.677C93.9633 58.5603 94.108 58.4273 94.248 58.278V56.808ZM90.223 53.91C90.615 53.532 91.0373 53.2497 91.49 53.063C91.9426 52.8763 92.4443 52.783 92.995 52.783C93.3916 52.783 93.744 52.8483 94.052 52.979C94.36 53.1097 94.619 53.2917 94.829 53.525C95.039 53.7583 95.1976 54.0407 95.305 54.372C95.4123 54.7033 95.466 55.0673 95.466 55.464V60H94.913C94.7916 60 94.6983 59.9813 94.633 59.944C94.5676 59.902 94.5163 59.8227 94.479 59.706L94.339 59.034C94.1523 59.2067 93.9703 59.3607 93.793 59.496C93.6156 59.6267 93.429 59.7387 93.233 59.832C93.037 59.9207 92.827 59.9883 92.603 60.035C92.3836 60.0863 92.1386 60.112 91.868 60.112C91.5926 60.112 91.3336 60.0747 91.091 60C90.8483 59.9207 90.636 59.804 90.454 59.65C90.2766 59.496 90.1343 59.3023 90.027 59.069C89.9243 58.831 89.873 58.551 89.873 58.229C89.873 57.949 89.95 57.6807 90.104 57.424C90.258 57.1627 90.5076 56.9317 90.853 56.731C91.1983 56.5303 91.6486 56.367 92.204 56.241C92.7593 56.1103 93.4406 56.0357 94.248 56.017V55.464C94.248 54.9133 94.129 54.498 93.891 54.218C93.653 53.9333 93.3053 53.791 92.848 53.791C92.54 53.791 92.281 53.8307 92.071 53.91C91.8656 53.9847 91.686 54.071 91.532 54.169C91.3826 54.2623 91.252 54.3487 91.14 54.428C91.0326 54.5027 90.9253 54.54 90.818 54.54C90.734 54.54 90.6616 54.519 90.601 54.477C90.5403 54.4303 90.489 54.3743 90.447 54.309L90.223 53.91ZM102.799 54.169C102.762 54.2203 102.724 54.26 102.687 54.288C102.65 54.316 102.598 54.33 102.533 54.33C102.463 54.33 102.386 54.302 102.302 54.246C102.218 54.1853 102.113 54.12 101.987 54.05C101.866 53.98 101.714 53.917 101.532 53.861C101.355 53.8003 101.135 53.77 100.874 53.77C100.524 53.77 100.216 53.833 99.95 53.959C99.684 54.0803 99.46 54.2577 99.278 54.491C99.1006 54.7243 98.9653 55.0067 98.872 55.338C98.7833 55.6693 98.739 56.0403 98.739 56.451C98.739 56.8803 98.788 57.263 98.886 57.599C98.984 57.9303 99.1216 58.2103 99.299 58.439C99.481 58.663 99.698 58.8357 99.95 58.957C100.207 59.0737 100.494 59.132 100.811 59.132C101.114 59.132 101.364 59.097 101.56 59.027C101.756 58.9523 101.917 58.8707 102.043 58.782C102.174 58.6933 102.281 58.614 102.365 58.544C102.454 58.4693 102.54 58.432 102.624 58.432C102.727 58.432 102.806 58.4717 102.862 58.551L103.212 59.006C103.058 59.1973 102.883 59.3607 102.687 59.496C102.491 59.6313 102.279 59.7457 102.05 59.839C101.826 59.9277 101.59 59.993 101.343 60.035C101.096 60.077 100.844 60.098 100.587 60.098C100.144 60.098 99.7306 60.0163 99.348 59.853C98.97 59.6897 98.641 59.454 98.361 59.146C98.081 58.8333 97.8616 58.4507 97.703 57.998C97.5443 57.5453 97.465 57.0297 97.465 56.451C97.465 55.9237 97.5373 55.436 97.682 54.988C97.8313 54.54 98.046 54.155 98.326 53.833C98.6106 53.5063 98.9583 53.252 99.369 53.07C99.7843 52.888 100.26 52.797 100.797 52.797C101.296 52.797 101.735 52.8787 102.113 53.042C102.496 53.2007 102.834 53.427 103.128 53.721L102.799 54.169ZM109.672 55.681C109.672 55.3917 109.63 55.128 109.546 54.89C109.467 54.6473 109.348 54.4397 109.189 54.267C109.035 54.0897 108.846 53.9543 108.622 53.861C108.398 53.763 108.144 53.714 107.859 53.714C107.262 53.714 106.788 53.889 106.438 54.239C106.093 54.5843 105.878 55.065 105.794 55.681H109.672ZM110.68 59.006C110.526 59.1927 110.342 59.356 110.127 59.496C109.913 59.6313 109.682 59.7433 109.434 59.832C109.192 59.9207 108.94 59.986 108.678 60.028C108.417 60.0747 108.158 60.098 107.901 60.098C107.411 60.098 106.959 60.0163 106.543 59.853C106.133 59.685 105.776 59.4423 105.472 59.125C105.174 58.803 104.94 58.4063 104.772 57.935C104.604 57.4637 104.52 56.9223 104.52 56.311C104.52 55.8163 104.595 55.3543 104.744 54.925C104.898 54.4957 105.118 54.1247 105.402 53.812C105.687 53.4947 106.035 53.2473 106.445 53.07C106.856 52.888 107.318 52.797 107.831 52.797C108.256 52.797 108.648 52.8693 109.007 53.014C109.371 53.154 109.684 53.3593 109.945 53.63C110.211 53.896 110.419 54.2273 110.568 54.624C110.718 55.016 110.792 55.464 110.792 55.968C110.792 56.164 110.771 56.2947 110.729 56.36C110.687 56.4253 110.608 56.458 110.491 56.458H105.752C105.766 56.906 105.827 57.2957 105.934 57.627C106.046 57.9583 106.2 58.236 106.396 58.46C106.592 58.6793 106.826 58.845 107.096 58.957C107.367 59.0643 107.67 59.118 108.006 59.118C108.319 59.118 108.587 59.083 108.811 59.013C109.04 58.9383 109.236 58.859 109.399 58.775C109.563 58.691 109.698 58.614 109.805 58.544C109.917 58.4693 110.013 58.432 110.092 58.432C110.195 58.432 110.274 58.4717 110.33 58.551L110.68 59.006ZM114.076 58.292C114.305 58.6 114.554 58.817 114.825 58.943C115.1 59.069 115.401 59.132 115.728 59.132C116.395 59.132 116.906 58.8963 117.261 58.425C117.616 57.9537 117.793 57.2513 117.793 56.318C117.793 55.45 117.634 54.813 117.317 54.407C117.004 53.9963 116.556 53.791 115.973 53.791C115.567 53.791 115.212 53.8843 114.909 54.071C114.61 54.2577 114.333 54.5213 114.076 54.862V58.292ZM114.076 53.931C114.375 53.5857 114.711 53.3103 115.084 53.105C115.462 52.8997 115.896 52.797 116.386 52.797C116.801 52.797 117.175 52.8763 117.506 53.035C117.842 53.1937 118.127 53.4247 118.36 53.728C118.593 54.0267 118.771 54.3907 118.892 54.82C119.018 55.2493 119.081 55.7323 119.081 56.269C119.081 56.843 119.011 57.3657 118.871 57.837C118.731 58.3083 118.528 58.712 118.262 59.048C118.001 59.3793 117.681 59.6383 117.303 59.825C116.925 60.007 116.5 60.098 116.029 60.098C115.562 60.098 115.168 60.0117 114.846 59.839C114.529 59.6617 114.251 59.412 114.013 59.09L113.95 59.734C113.913 59.9113 113.805 60 113.628 60H112.823V49.689H114.076V53.931ZM124.146 52.797C124.664 52.797 125.131 52.8833 125.546 53.056C125.961 53.2287 126.316 53.4737 126.61 53.791C126.904 54.1083 127.128 54.4933 127.282 54.946C127.441 55.394 127.52 55.8957 127.52 56.451C127.52 57.011 127.441 57.515 127.282 57.963C127.128 58.411 126.904 58.7937 126.61 59.111C126.316 59.4283 125.961 59.6733 125.546 59.846C125.131 60.014 124.664 60.098 124.146 60.098C123.623 60.098 123.152 60.014 122.732 59.846C122.317 59.6733 121.962 59.4283 121.668 59.111C121.374 58.7937 121.148 58.411 120.989 57.963C120.835 57.515 120.758 57.011 120.758 56.451C120.758 55.8957 120.835 55.394 120.989 54.946C121.148 54.4933 121.374 54.1083 121.668 53.791C121.962 53.4737 122.317 53.2287 122.732 53.056C123.152 52.8833 123.623 52.797 124.146 52.797ZM124.146 59.125C124.846 59.125 125.369 58.8917 125.714 58.425C126.059 57.9537 126.232 57.298 126.232 56.458C126.232 55.6133 126.059 54.9553 125.714 54.484C125.369 54.0127 124.846 53.777 124.146 53.777C123.791 53.777 123.481 53.8377 123.215 53.959C122.954 54.0803 122.734 54.2553 122.557 54.484C122.384 54.7127 122.254 54.995 122.165 55.331C122.081 55.6623 122.039 56.038 122.039 56.458C122.039 57.298 122.212 57.9537 122.557 58.425C122.907 58.8917 123.437 59.125 124.146 59.125ZM132.589 52.797C133.107 52.797 133.574 52.8833 133.989 53.056C134.405 53.2287 134.759 53.4737 135.053 53.791C135.347 54.1083 135.571 54.4933 135.725 54.946C135.884 55.394 135.963 55.8957 135.963 56.451C135.963 57.011 135.884 57.515 135.725 57.963C135.571 58.411 135.347 58.7937 135.053 59.111C134.759 59.4283 134.405 59.6733 133.989 59.846C133.574 60.014 133.107 60.098 132.589 60.098C132.067 60.098 131.595 60.014 131.175 59.846C130.76 59.6733 130.405 59.4283 130.111 59.111C129.817 58.7937 129.591 58.411 129.432 57.963C129.278 57.515 129.201 57.011 129.201 56.451C129.201 55.8957 129.278 55.394 129.432 54.946C129.591 54.4933 129.817 54.1083 130.111 53.791C130.405 53.4737 130.76 53.2287 131.175 53.056C131.595 52.8833 132.067 52.797 132.589 52.797ZM132.589 59.125C133.289 59.125 133.812 58.8917 134.157 58.425C134.503 57.9537 134.675 57.298 134.675 56.458C134.675 55.6133 134.503 54.9553 134.157 54.484C133.812 54.0127 133.289 53.777 132.589 53.777C132.235 53.777 131.924 53.8377 131.658 53.959C131.397 54.0803 131.178 54.2553 131 54.484C130.828 54.7127 130.697 54.995 130.608 55.331C130.524 55.6623 130.482 56.038 130.482 56.458C130.482 57.298 130.655 57.9537 131 58.425C131.35 58.8917 131.88 59.125 132.589 59.125ZM139.297 49.689V55.758H139.619C139.712 55.758 139.789 55.7463 139.85 55.723C139.915 55.695 139.983 55.6413 140.053 55.562L142.293 53.161C142.358 53.0817 142.426 53.021 142.496 52.979C142.57 52.9323 142.668 52.909 142.79 52.909H143.917L141.306 55.688C141.18 55.8467 141.044 55.9703 140.9 56.059C140.984 56.115 141.058 56.1803 141.124 56.255C141.194 56.325 141.259 56.4067 141.32 56.5L144.092 60H142.979C142.871 60 142.778 59.9837 142.699 59.951C142.624 59.9137 142.559 59.8483 142.503 59.755L140.172 56.85C140.102 56.752 140.032 56.689 139.962 56.661C139.896 56.6283 139.794 56.612 139.654 56.612H139.297V60H138.044V49.689H139.297Z" fill="#09051C"/>
<defs>
<filter id="filter0_d_21_201" x="-16" y="0" width="252" height="157" filterUnits="userSpaceOnUse" color-interpolation-filters="sRGB">
<feFlood flood-opacity="0" result="BackgroundImageFix"/>
<feColorMatrix in="SourceAlpha" type="matrix" values="0 0 0 0 0 0 0 0 0 0 0 0 0 0 0 0 0 0 127 0" result="hardAlpha"/>
<feOffset dx="12" dy="26"/>
<feGaussianBlur stdDeviation="25"/>
<feColorMatrix type="matrix" values="0 0 0 0 0.352941 0 0 0 0 0.423529 0 0 0 0 0.917647 0 0 0 0.07 0"/>
<feBlend mode="normal" in2="BackgroundImageFix" result="effect1_dropShadow_21_201"/>
<feBlend mode="normal" in="SourceGraphic" in2="effect1_dropShadow_21_201" result="shape"/>
</filter>
<clipPath id="clip0_21_201">
<rect width="25" height="25" fill="white" transform="translate(44 40)"/>
</clipPath>
</defs>
</svg>
